<svg width="150" height="150" viewBox="0 0 150 150" fill="none" xmlns="http://www.w3.org/2000/svg">
<rect width="150" height="150" rx="24" fill="#319141"/>
<path d="M51.5329 98.0592C18.5249 98.0592 17.1147 57.3413 42.8513 55.8469C45.3756 55.9272 48.1927 56.3812 51.3126 57.2774C51.3126 27.2079 98.4669 25.2667 98.4669 57.3413C101.675 56.4027 104.565 55.929 107.149 55.8469C132.885 57.3413 131.475 98.0592 98.4669 98.0592V106.838H51.6431L51.5329 98.0592Z" fill="white"/>
<path d="M51.3126 89.1493L51.5329 98.0592M98.4669 89.1493V106.838M51.5329 98.0592C18.5249 98.0592 17.1147 57.3413 42.8513 55.8469C45.3756 55.9272 48.1927 56.3812 51.3126 57.2774C51.3126 27.2079 98.4669 25.2667 98.4669 57.3413C101.675 56.4027 104.565 55.929 107.149 55.8469C132.885 57.3413 131.475 98.0592 98.4669 98.0592V106.838M51.5329 98.0592L51.6431 106.838L98.4669 106.838M78.9882 116.412C82.0437 115.059 90.2171 113.165 98.4669 116.412M70.7913 116.412C67.7358 115.059 59.5624 113.165 51.3126 116.412" stroke="black" stroke-width="6.03015" stroke-linecap="round" stroke-linejoin="round"/>
</svg> 